<svg width="100" height="100" viewBox="0 0 100 100" fill="none" xmlns="http://www.w3.org/2000/svg">
<rect width="100" height="100" fill="white"/>
<g clip-path="url(#clip0_110_3)">
<path d="M35.82 52.68V51.22L39.14 47.13H35.9V45.71H41.24V47.06L37.85 51.22H41.31V52.68H35.82Z" fill="#3126F5"/>
<path d="M48.97 51.2C48.83 51.54 48.63 51.84 48.37 52.09C48.11 52.34 47.79 52.53 47.42 52.67C47.05 52.81 46.64 52.88 46.19 52.88C45.73 52.88 45.32 52.81 44.95 52.67C44.58 52.53 44.27 52.34 44.02 52.09C43.76 51.84 43.57 51.55 43.43 51.2C43.29 50.86 43.22 50.47 43.22 50.05V45.71H44.89V49.91C44.89 50.1 44.91 50.28 44.96 50.45C45.01 50.62 45.08 50.77 45.19 50.91C45.29 51.04 45.43 51.15 45.59 51.23C45.76 51.31 45.96 51.35 46.19 51.35C46.43 51.35 46.63 51.31 46.79 51.23C46.96 51.15 47.09 51.04 47.2 50.91C47.3 50.78 47.38 50.62 47.43 50.45C47.48 50.28 47.5 50.1 47.5 49.91V45.71H49.18V50.05C49.18 50.47 49.11 50.85 48.97 51.2Z" fill="#3126F5"/>
<path d="M55.68 52.68L53.09 49.47H53.07V52.68H51.43V45.71H53.07V48.54H53.1L55.59 45.71H57.69L54.69 48.92L57.87 52.68H55.68V52.68Z" fill="#3126F5"/>
<path d="M74.77 52.68V45.71H76.46V52.67H74.77V52.68Z" fill="#3126F5"/>
<path d="M81.76 47.15V52.68H80.08V47.15H78.11V45.71H83.73V47.15H81.76Z" fill="#3126F5"/>
<path d="M93.18 52.68V45.71H94.87V52.67H93.18V52.68Z" fill="#3126F5"/>
<path d="M73.48 52.67L71.64 49.53C71.9 49.4 72.13 49.22 72.3 49.01C72.56 48.69 72.68 48.29 72.68 47.82C72.68 47.42 72.6 47.09 72.45 46.82C72.3 46.55 72.1 46.33 71.85 46.17C71.6 46 71.32 45.88 71 45.82C70.68 45.75 70.36 45.72 70.02 45.72H67.36V52.68H69V47.07H69.9C70.03 47.07 70.16 47.08 70.29 47.1C70.43 47.12 70.55 47.16 70.66 47.21C70.77 47.27 70.86 47.34 70.93 47.45C71 47.55 71.03 47.68 71.03 47.85C71.03 48.03 70.99 48.17 70.92 48.28C70.84 48.39 70.75 48.48 70.63 48.54C70.51 48.6 70.38 48.64 70.23 48.66C70.08 48.68 69.94 48.69 69.8 48.69H69.59L71.91 52.67H73.07H73.48Z" fill="#3126F5"/>
<path d="M90.26 52.68H92.09L89.2 45.71H87.56L84.64 52.68H86.39L88.35 47.57L90.26 52.68Z" fill="#3126F5"/>
<path d="M64.54 52.68H66.37L63.48 45.71H61.84L58.92 52.68H60.67L62.63 47.57L64.54 52.68Z" fill="#3126F5"/>
<path d="M32.88 52.68H34.71L31.82 45.71H30.19L27.26 52.68H29.01L30.97 47.57L32.88 52.68Z" fill="#3126F5"/>
<path d="M15.44 57.77L22.94 48.48H24.58V50.76L16.84 60.23H15.44V57.77Z" fill="white" stroke="#3126F5" stroke-width="0.126" stroke-miterlimit="10"/>
<path d="M15.57 48.48H24.58V50.76L15.57 50.87V48.48Z" fill="#3126F5" stroke="#3126F5" stroke-width="0.126" stroke-miterlimit="10"/>
<path d="M24.7 57.77H15.44V60.23H24.7V57.77Z" fill="#3126F5" stroke="#3126F5" stroke-width="0.126" stroke-miterlimit="10"/>
<path d="M15.57 50.87L18.66 50.81L13.78 39.06H11.02L15.57 50.87Z" fill="white" stroke="#3126F5" stroke-width="0.126" stroke-miterlimit="10"/>
<path d="M6.09 50.81H9.05L13.78 39.06H11.02L6.09 50.81Z" fill="#3126F5" stroke="#3126F5" stroke-width="0.126" stroke-miterlimit="10"/>
<path d="M12.36 40.36C12.5975 40.36 12.79 40.1675 12.79 39.93C12.79 39.6925 12.5975 39.5 12.36 39.5C12.1225 39.5 11.93 39.6925 11.93 39.93C11.93 40.1675 12.1225 40.36 12.36 40.36Z" fill="white" stroke="#3126F5" stroke-width="0.126" stroke-miterlimit="10"/>
<path d="M16.83 50.19C17.0675 50.19 17.26 49.9975 17.26 49.76C17.26 49.5225 17.0675 49.33 16.83 49.33C16.5925 49.33 16.4 49.5225 16.4 49.76C16.4 49.9975 16.5925 50.19 16.83 50.19Z" fill="white" stroke="#3126F5" stroke-width="0.126" stroke-miterlimit="10"/>
<path d="M7.88 50.19C8.11748 50.19 8.31 49.9975 8.31 49.76C8.31 49.5225 8.11748 49.33 7.88 49.33C7.64251 49.33 7.45 49.5225 7.45 49.76C7.45 49.9975 7.64251 50.19 7.88 50.19Z" fill="white" stroke="#3126F5" stroke-width="0.126" stroke-miterlimit="10"/>
<path d="M23.24 50.19C23.4775 50.19 23.67 49.9975 23.67 49.76C23.67 49.5225 23.4775 49.33 23.24 49.33C23.0025 49.33 22.81 49.5225 22.81 49.76C22.81 49.9975 23.0025 50.19 23.24 50.19Z" fill="white" stroke="#3126F5" stroke-width="0.126" stroke-miterlimit="10"/>
<path d="M16.76 59.39C16.9975 59.39 17.19 59.1975 17.19 58.96C17.19 58.7225 16.9975 58.53 16.76 58.53C16.5225 58.53 16.33 58.7225 16.33 58.96C16.33 59.1975 16.5225 59.39 16.76 59.39Z" fill="white" stroke="#3126F5" stroke-width="0.126" stroke-miterlimit="10"/>
<path d="M23.53 59.39C23.7675 59.39 23.96 59.1975 23.96 58.96C23.96 58.7225 23.7675 58.53 23.53 58.53C23.2925 58.53 23.1 58.7225 23.1 58.96C23.1 59.1975 23.2925 59.39 23.53 59.39Z" fill="white" stroke="#3126F5" stroke-width="0.126" stroke-miterlimit="10"/>
</g>
<defs>
<clipPath id="clip0_110_3">
<rect width="88.87" height="21.29" fill="white" transform="translate(6 39)"/>
</clipPath>
</defs>
</svg>
