<svg width="100" height="100" viewBox="0 0 100 100" fill="none" xmlns="http://www.w3.org/2000/svg">
<rect width="100" height="100" fill="white"/>
<g clip-path="url(#clip0)">
<path d="M78.9901 51.5755L74.8692 55.6269L78.1659 45.558L68.7524 53.7998L69.9539 46.551L59.756 55.7063L61.1462 20.2072L51.1469 64.6729L62.0697 59.2115L61.8512 66.5L70.8476 58.0398L70.0135 66.6986L78.9901 51.5755Z" fill="#3126F5"/>
<path d="M49.995 46.7099C47.6417 46.9879 46.4898 52.0223 46.4898 52.0223C46.4898 52.0223 46.3111 47.5937 44.8216 47.4149C42.6569 47.1567 38.7843 55.6864 38.7843 55.6864C38.7843 55.6864 41.4256 50.5726 40.2241 48.1795C39.4893 46.7198 38.4268 46.8092 36.2522 46.3326C40.8894 46.0645 42.4285 44.4062 43.0144 42.8969C43.3719 41.9833 43.1534 39.7789 42.1207 37.5149C43.6598 39.2923 43.9379 40.186 45.4174 40.4243C47.88 40.8215 52.3683 36.234 53.4903 32.0336C54.8805 26.8801 53.1527 25.4899 50.7497 24.8445C47.4629 23.9607 45.894 25.4899 44.7918 29.6902C44.3439 31.3996 44.1696 33.1692 44.2755 34.9332C43.8097 32.8658 42.8177 30.9538 41.3958 29.3824C37.553 25.5396 34.1769 25.2019 30.8702 27.9525C28.1495 30.2364 29.0034 35.1715 32.3001 38.4781C33.3423 39.5147 34.4646 40.4676 35.6564 41.3279C34.3115 40.4176 32.8894 39.6268 31.4064 38.9647C27.0075 36.9787 23.4626 35.2112 21.6256 39.3519C19.4609 44.1381 23.3236 45.1013 27.7324 47.0972C29.562 47.9362 31.4855 48.5529 33.4619 48.9342C32.6202 48.9647 31.7811 49.0476 30.9497 49.1824C26.4217 49.8974 24.4754 50.9996 24.6145 52.5586C24.7535 54.1175 26.9678 55.8652 31.4164 54.8226C33.6804 54.2963 35.5372 52.6579 36.7288 53.2735C37.7218 53.7601 31.9029 61.833 33.7499 64.0275C35.5968 66.222 41.793 64.1764 45.9834 55.7957C45.9834 55.7957 47.2643 68.1285 51.1965 67.4632C54.523 66.8972 54.8408 61.2968 54.662 58.2583C54.2152 51.2081 53.0336 46.3425 49.995 46.7099Z" fill="#3126F5"/>
<path d="M32.5583 73.3615C32.499 72.9194 32.2926 72.5102 31.9724 72.1997C31.6565 71.932 31.2545 71.7874 30.8404 71.7926C29.5496 71.7926 28.775 72.9643 28.775 74.9205C28.775 76.8766 29.5198 77.9689 30.761 77.9689C31.0387 77.9717 31.3123 77.9017 31.5544 77.7658C31.7966 77.6299 31.9989 77.4329 32.1412 77.1944C32.3837 76.7988 32.5362 76.3547 32.5881 75.8936H33.4123C33.3542 76.7186 33.0302 77.5026 32.4888 78.1278C32.2564 78.3728 31.976 78.5671 31.665 78.6987C31.354 78.8303 31.0192 78.8962 30.6816 78.8924C28.9637 78.8924 27.8714 77.3433 27.8714 74.9205C27.8714 72.4976 29.0034 70.9486 30.7908 70.9486C31.2252 70.9343 31.6553 71.0386 32.0349 71.2502C32.4146 71.4619 32.7294 71.773 32.9456 72.1501C33.1759 72.5403 33.3119 72.9789 33.3428 73.431L32.5583 73.3615Z" fill="#3126F5"/>
<path d="M34.5244 72.1004V71.0379H35.2791V72.1004H34.5244ZM35.2791 78.6442H34.5244V73.1033H35.2791V78.6442Z" fill="#3126F5"/>
<path d="M38.3871 73.9275C37.7218 73.9275 37.2253 74.5531 37.2253 75.417V78.6442H36.4607V73.1033H37.1856V74.0963C37.5828 73.3019 37.9502 72.9941 38.4765 72.9941C38.5423 72.9837 38.6093 72.9837 38.6751 72.9941V73.9871L38.3871 73.9275Z" fill="#3126F5"/>
<path d="M42.1902 74.9701C42.0611 74.136 41.7334 73.7686 41.1277 73.7686C40.3333 73.7686 39.8666 74.5531 39.8666 75.9035C39.8666 77.254 40.3035 77.9888 41.0781 77.9888C41.654 77.9888 42.071 77.5519 42.1902 76.688H42.925C42.7463 78.098 42.1207 78.803 41.088 78.803C39.8468 78.803 39.0524 77.7008 39.0524 75.973C39.0524 74.2453 39.8865 72.9941 41.1972 72.9941C42.1902 72.9941 42.7959 73.6594 42.925 74.9801L42.1902 74.9701Z" fill="#3126F5"/>
<path d="M46.7778 78.6442V77.7902C46.3707 78.5548 46.0132 78.7832 45.338 78.7832C44.345 78.7832 43.8386 78.1477 43.8386 77.0653V73.0934H44.6032V76.7774C44.6032 77.5717 44.9011 77.9789 45.4869 77.9789C46.2515 77.9789 46.7381 77.2738 46.7381 76.1518V73.1033H47.5027V78.6442H46.7778Z" fill="#3126F5"/>
<path d="M48.5949 72.1004V71.0379H49.3496V72.1004H48.5949ZM49.3496 78.6442H48.5949V73.1033H49.3496V78.6442Z" fill="#3126F5"/>
<path d="M51.7824 73.8778V77.4824C51.7824 77.8001 51.9214 77.9292 52.2491 77.9193H52.5172V78.6442L52.1697 78.6938C52.0839 78.7032 51.9973 78.7032 51.9115 78.6938C51.3058 78.6938 51.0178 78.3065 51.0178 77.5022V73.8778H50.4022V73.1033H50.988V71.5543H51.7526V73.1033H52.4974V73.8778H51.7824Z" fill="#3126F5"/>
<path d="M56.9459 77.7306H60.1036V78.6442H56.1317V71.0379H56.9459V77.7306Z" fill="#3126F5"/>
<path d="M61.1661 74.7914C61.1546 74.4022 61.2508 74.0173 61.4441 73.6792C61.6153 73.4318 61.8485 73.2337 62.1204 73.1048C62.3923 72.9758 62.6932 72.9205 62.9932 72.9444C63.2127 72.9124 63.4366 72.9289 63.6491 72.9927C63.8617 73.0565 64.0576 73.1661 64.2232 73.3137C64.3889 73.4614 64.5201 73.6435 64.6078 73.8473C64.6955 74.0512 64.7375 74.2717 64.7309 74.4935V77.681C64.7309 77.8994 64.8103 78.0086 64.9692 78.0086C65.0581 78.0208 65.1483 78.0208 65.2373 78.0086V78.6839H65.138C65.0279 78.7298 64.9097 78.7534 64.7904 78.7534C64.2741 78.7534 64.0656 78.525 64.006 77.9093C63.8351 78.182 63.5979 78.4069 63.3166 78.5631C63.0354 78.7194 62.7191 78.8019 62.3974 78.803C62.189 78.8104 61.9814 78.7724 61.7891 78.6917C61.5968 78.611 61.4244 78.4895 61.2837 78.3356C61.143 78.1816 61.0374 77.999 60.9742 77.8002C60.911 77.6015 60.8918 77.3914 60.9178 77.1845C60.8758 76.7757 60.9958 76.3668 61.252 76.0456C61.5082 75.7243 61.8803 75.5165 62.2881 75.4666L63.5492 75.2779C63.8372 75.2779 63.9563 75.0396 63.9563 74.6424C63.9563 74.0268 63.6088 73.719 62.9038 73.719C62.1988 73.719 61.9108 74.0069 61.8314 74.7914H61.1661ZM63.9663 75.7844C63.8074 75.9333 63.579 75.9929 62.7052 76.1418C62.0101 76.2511 61.7122 76.5192 61.7122 77.0752C61.7122 77.6313 62.0002 77.9987 62.5264 77.9987C62.885 78.0096 63.2334 77.8794 63.4971 77.6362C63.7607 77.393 63.9185 77.0561 63.9365 76.6979L63.9663 75.7844Z" fill="#3126F5"/>
<path d="M66.3196 78.6442V71.0379H67.0842V73.8282C67.1999 73.5682 67.3877 73.3468 67.6252 73.1902C67.8628 73.0336 68.1402 72.9483 68.4248 72.9444C69.5568 72.9444 70.3015 74.0665 70.3015 75.7447C70.3015 77.6015 69.517 78.803 68.3155 78.803C68.0372 78.811 67.7634 78.7308 67.5333 78.5739C67.3033 78.417 67.1287 78.1913 67.0346 77.9292V78.6442H66.3196ZM67.0544 76.0227C67.0069 76.5692 67.147 77.1155 67.4516 77.5717C67.5534 77.7011 67.683 77.8058 67.8309 77.878C67.9788 77.9502 68.141 77.9881 68.3056 77.9888C69.0603 77.9888 69.5071 77.1845 69.5071 75.7943C69.5071 74.4041 69.1099 73.8083 68.2659 73.8083C67.4218 73.8083 67.0544 74.563 67.0544 76.0227V76.0227Z" fill="#3126F5"/>
<path d="M72.0491 78.6442H71.1356V77.5122H72.0491V78.6442Z" fill="#3126F5"/>
</g>
<defs>
<clipPath id="clip0">
<rect width="58" height="58.6355" fill="white" transform="translate(21 20.2072)"/>
</clipPath>
</defs>
</svg>
