<svg width="100" height="100" viewBox="0 0 100 100" fill="none" xmlns="http://www.w3.org/2000/svg">
<rect width="100" height="100" fill="white"/>
<g clip-path="url(#clip0)">
<path d="M10.14 50.12C10.1433 50.6554 10.1834 51.19 10.26 51.72H12.91V48.54H10.26C10.1833 49.0632 10.1432 49.5912 10.14 50.12V50.12Z" fill="#3126F5"/>
<path d="M12.91 44.32C11.72 44.5 10.72 46 10.31 48.06H12.91V44.32Z" fill="#3126F5"/>
<path d="M13.4 44.32V48.06H16C15.59 46 14.59 44.5 13.4 44.32Z" fill="#3126F5"/>
<path d="M16.47 48.06H18.85C18.4982 47.0776 17.8962 46.2039 17.1035 45.5252C16.3109 44.8465 15.3549 44.3863 14.33 44.19C14.9253 44.6611 15.421 45.2459 15.7884 45.9102C16.1558 46.5746 16.3875 47.3053 16.47 48.06V48.06Z" fill="#3126F5"/>
<path d="M16.66 50.12C16.6599 50.6552 16.6232 51.1898 16.55 51.72H18.99C19.1351 51.199 19.2091 50.6608 19.21 50.12C19.2074 49.5865 19.1368 49.0556 19 48.54H16.55C16.6232 49.0635 16.6599 49.5914 16.66 50.12V50.12Z" fill="#3126F5"/>
<path d="M12.91 55.9V52.18H10.31C10.75 54.23 11.75 55.72 12.91 55.9Z" fill="#3126F5"/>
<path d="M9.68 50.12C9.68006 49.5914 9.71681 49.0635 9.79 48.54H7.34C7.19824 49.0546 7.12759 49.5862 7.13 50.12C7.13089 50.6608 7.20489 51.199 7.35 51.72H9.79C9.71681 51.1898 9.68006 50.6552 9.68 50.12V50.12Z" fill="#3126F5"/>
<path d="M9.91 52.18H7.49C7.84838 53.1575 8.45255 54.0261 9.24424 54.7022C10.0359 55.3783 10.9885 55.8391 12.01 56.04C11.422 55.5676 10.9336 54.9831 10.5731 54.3205C10.2126 53.6579 9.98722 52.9303 9.91 52.18V52.18Z" fill="#3126F5"/>
<path d="M16 52.18H13.4V55.9C14.59 55.72 15.59 54.23 16 52.18Z" fill="#3126F5"/>
<path d="M16.47 52.18C16.3878 52.9333 16.1562 53.6628 15.7888 54.3255C15.4213 54.9883 14.9254 55.5712 14.33 56.04C15.3508 55.8372 16.3024 55.3758 17.0938 54.7C17.8853 54.0241 18.4899 53.1564 18.85 52.18H16.47Z" fill="#3126F5"/>
<path d="M16.19 50.12C16.1899 49.5914 16.1532 49.0635 16.08 48.54H13.4V51.72H16.08C16.1532 51.1898 16.1899 50.6552 16.19 50.12V50.12Z" fill="#3126F5"/>
<path d="M9.91 48.06C9.9916 47.304 10.2239 46.572 10.5932 45.9073C10.9625 45.2426 11.4612 44.6587 12.06 44.19C11.0351 44.3863 10.0791 44.8465 9.28646 45.5252C8.49378 46.2039 7.89182 47.0776 7.54 48.06H9.91Z" fill="#3126F5"/>
<path d="M91.2 48.06C91.1512 47.1289 90.7469 46.2521 90.0705 45.6103C89.3942 44.9685 88.4974 44.6107 87.565 44.6107C86.6326 44.6107 85.7358 44.9685 85.0595 45.6103C84.3831 46.2521 83.9789 47.1289 83.93 48.06H91.2Z" fill="#3126F5"/>
<path d="M83.91 52.18V54.01C83.9417 54.4086 84.1224 54.7807 84.4162 55.052C84.7099 55.3233 85.0951 55.474 85.495 55.474C85.8949 55.474 86.2801 55.3233 86.5738 55.052C86.8676 54.7807 87.0483 54.4086 87.08 54.01V52.18H83.91Z" fill="#3126F5"/>
<path d="M87.04 51.71H88.08H91.25V48.53H88.08V49.57H87.04V48.53H83.88V51.71H87.04Z" fill="#3126F5"/>
<path d="M88.08 52.18V54.01C88.08 54.2175 88.1209 54.4229 88.2003 54.6146C88.2797 54.8063 88.3961 54.9805 88.5428 55.1272C88.6895 55.2739 88.8637 55.3903 89.0554 55.4697C89.2471 55.5491 89.4525 55.59 89.66 55.59C90.08 55.59 90.4829 55.4239 90.7808 55.1278C91.0787 54.8318 91.2474 54.43 91.25 54.01V52.18H88.08Z" fill="#3126F5"/>
<path d="M71.75 44.65H71.51C70.6056 44.65 69.7383 45.0093 69.0988 45.6488C68.4593 46.2883 68.1 47.1556 68.1 48.06H73.36C73.8109 48.06 74.2433 47.8809 74.5621 47.5621C74.8809 47.2433 75.06 46.8109 75.06 46.36C75.0613 46.1359 75.0183 45.9138 74.9335 45.7064C74.8486 45.499 74.7236 45.3104 74.5656 45.1514C74.4076 44.9925 74.2198 44.8664 74.0129 44.7803C73.806 44.6943 73.5841 44.65 73.36 44.65H71.75Z" fill="#3126F5"/>
<path d="M48.38 44.65H48.15C47.2447 44.65 46.3763 45.0089 45.7352 45.6481C45.0941 46.2874 44.7326 47.1547 44.73 48.06H50.1C50.5518 48.06 50.9852 47.8812 51.3056 47.5627C51.626 47.2442 51.8074 46.8118 51.81 46.36V46.36C51.81 45.9065 51.6298 45.4715 51.3092 45.1508C50.9885 44.8302 50.5535 44.65 50.1 44.65H48.38Z" fill="#3126F5"/>
<path d="M48.39 55.59H48.62C49.5244 55.59 50.3917 55.2307 51.0312 54.5912C51.6707 53.9517 52.03 53.0844 52.03 52.18H46.45C46.2259 52.1787 46.0038 52.2217 45.7964 52.3065C45.589 52.3914 45.4004 52.5164 45.2414 52.6744C45.0825 52.8324 44.9564 53.0202 44.8704 53.2271C44.7843 53.434 44.74 53.6559 44.74 53.88V53.88C44.7387 54.1049 44.782 54.3279 44.8675 54.5359C44.9529 54.744 45.0788 54.933 45.2379 55.0921C45.3969 55.2512 45.586 55.3771 45.794 55.4625C46.0021 55.548 46.2251 55.5913 46.45 55.59H48.39Z" fill="#3126F5"/>
<path d="M71.75 55.59H71.51C70.6056 55.59 69.7383 55.2307 69.0988 54.5912C68.4593 53.9517 68.1 53.0844 68.1 52.18H73.69C73.9132 52.18 74.1343 52.224 74.3406 52.3094C74.5468 52.3948 74.7342 52.5201 74.8921 52.6779C75.0499 52.8358 75.1752 53.0232 75.2606 53.2294C75.346 53.4357 75.39 53.6567 75.39 53.88C75.3913 54.1041 75.3483 54.3262 75.2635 54.5336C75.1786 54.741 75.0536 54.9296 74.8956 55.0885C74.7376 55.2475 74.5498 55.3736 74.3429 55.4596C74.136 55.5457 73.9141 55.59 73.69 55.59H71.75Z" fill="#3126F5"/>
<path d="M82.11 44.65H77.22C76.9951 44.6487 76.7721 44.692 76.564 44.7774C76.356 44.8629 76.1669 44.9888 76.0079 45.1479C75.8488 45.3069 75.7229 45.496 75.6375 45.704C75.552 45.9121 75.5087 46.1351 75.51 46.36C75.51 46.5841 75.5543 46.806 75.6404 47.0129C75.7264 47.2198 75.8525 47.4076 76.0115 47.5656C76.1704 47.7236 76.359 47.8486 76.5664 47.9335C76.7738 48.0183 76.9959 48.0613 77.22 48.06H82.11C82.3341 48.0613 82.5562 48.0183 82.7636 47.9335C82.971 47.8486 83.1596 47.7236 83.3186 47.5656C83.4775 47.4076 83.6036 47.2198 83.6897 47.0129C83.7757 46.806 83.82 46.5841 83.82 46.36V46.36C83.8213 46.1351 83.778 45.9121 83.6925 45.704C83.6071 45.496 83.4812 45.3069 83.3221 45.1479C83.1631 44.9888 82.974 44.8629 82.766 44.7774C82.5579 44.692 82.3349 44.6487 82.11 44.65Z" fill="#3126F5"/>
<path d="M68.1 51.69V48.5H72.92C73.1275 48.5 73.3329 48.5409 73.5246 48.6203C73.7163 48.6997 73.8905 48.8161 74.0372 48.9628C74.1839 49.1095 74.3003 49.2837 74.3797 49.4754C74.4591 49.6671 74.5 49.8725 74.5 50.08V50.08C74.5 50.2875 74.4591 50.4929 74.3797 50.6846C74.3003 50.8763 74.1839 51.0505 74.0372 51.1972C73.8905 51.3439 73.7163 51.4603 73.5246 51.5397C73.3329 51.6191 73.1275 51.66 72.92 51.66H68.1V51.69Z" fill="#3126F5"/>
<path d="M44.73 48.53H48.85C49.6882 48.5379 50.4893 48.8764 51.0792 49.4719C51.6691 50.0675 52 50.8718 52 51.71V51.71H47.92C47.0766 51.71 46.2678 51.375 45.6714 50.7786C45.075 50.1822 44.74 49.3734 44.74 48.53V48.53H44.73Z" fill="#3126F5"/>
<path d="M65.86 44.65C66.279 44.65 66.6809 44.8165 66.9772 45.1128C67.2735 45.4091 67.44 45.811 67.44 46.23V46.48C67.44 46.899 67.2735 47.3009 66.9772 47.5972C66.6809 47.8935 66.279 48.06 65.86 48.06H64.28V46.23C64.28 45.811 64.4465 45.4091 64.7428 45.1128C65.0391 44.8165 65.441 44.65 65.86 44.65V44.65Z" fill="#3126F5"/>
<path d="M34.55 48.53H30.9V51.71H34.55V48.53Z" fill="#3126F5"/>
<path d="M30.27 48.06H35.17C35.6218 48.06 36.0552 47.8812 36.3756 47.5627C36.696 47.2442 36.8774 46.8118 36.88 46.36V46.36C36.88 45.9065 36.6998 45.4715 36.3792 45.1508C36.0585 44.8302 35.6235 44.65 35.17 44.65H30.27C30.0459 44.65 29.824 44.6943 29.6171 44.7803C29.4102 44.8664 29.2224 44.9925 29.0644 45.1514C28.9064 45.3104 28.7814 45.499 28.6965 45.7064C28.6117 45.9138 28.5687 46.1359 28.57 46.36V46.36C28.57 46.8109 28.7491 47.2433 29.0679 47.5621C29.3867 47.8809 29.8191 48.06 30.27 48.06Z" fill="#3126F5"/>
<path d="M30.91 52.18V53.77C30.9441 54.2307 31.1512 54.6614 31.4897 54.9758C31.8282 55.2901 32.2731 55.4648 32.735 55.4648C33.1969 55.4648 33.6418 55.2901 33.9803 54.9758C34.3188 54.6614 34.5259 54.2307 34.56 53.77V52.18H30.91Z" fill="#3126F5"/>
<path d="M44.21 48.06C44.1418 47.1412 43.7288 46.2822 43.0536 45.6553C42.3785 45.0284 41.4913 44.68 40.57 44.68C39.6487 44.68 38.7615 45.0284 38.0864 45.6553C37.4112 46.2822 36.9982 47.1412 36.93 48.06H44.21Z" fill="#3126F5"/>
<path d="M40.05 51.71H41.09H44.25V48.53H41.09V49.57H40.05V48.53H36.88V51.71H40.05Z" fill="#3126F5"/>
<path d="M41.08 52.18V54.01C41.1117 54.4086 41.2924 54.7807 41.5862 55.052C41.8799 55.3233 42.2651 55.474 42.665 55.474C43.0649 55.474 43.4501 55.3233 43.7438 55.052C44.0376 54.7807 44.2183 54.4086 44.25 54.01V52.18H41.08Z" fill="#3126F5"/>
<path d="M36.91 52.18V54.01C36.91 54.2175 36.9509 54.4229 37.0303 54.6146C37.1097 54.8063 37.2261 54.9805 37.3728 55.1272C37.5195 55.2739 37.6937 55.3903 37.8854 55.4697C38.0771 55.5491 38.2825 55.59 38.49 55.59C38.6975 55.59 38.9029 55.5491 39.0946 55.4697C39.2863 55.3903 39.4605 55.2739 39.6072 55.1272C39.7539 54.9805 39.8703 54.8063 39.9497 54.6146C40.0291 54.4229 40.07 54.2175 40.07 54.01V52.18H36.91Z" fill="#3126F5"/>
<path d="M55.58 48.06V46.23C55.5774 45.81 55.4087 45.4082 55.1108 45.1122C54.8129 44.8161 54.41 44.65 53.99 44.65C53.571 44.65 53.1691 44.8165 52.8728 45.1128C52.5765 45.4091 52.41 45.811 52.41 46.23V48.06H55.58Z" fill="#3126F5"/>
<path d="M59.78 48.06V46.23C59.78 45.811 59.6135 45.4091 59.3172 45.1128C59.0209 44.8165 58.619 44.65 58.2 44.65V44.65C57.78 44.65 57.3771 44.8161 57.0792 45.1122C56.7813 45.4082 56.6126 45.81 56.61 46.23V48.06H59.78Z" fill="#3126F5"/>
<path d="M64.49 52.18V54.01C64.5217 54.4086 64.7024 54.7807 64.9962 55.052C65.2899 55.3233 65.6751 55.474 66.075 55.474C66.4749 55.474 66.8601 55.3233 67.1538 55.052C67.4476 54.7807 67.6283 54.4086 67.66 54.01V52.18H64.49Z" fill="#3126F5"/>
<path d="M60.29 52.18V54.01C60.3217 54.4086 60.5024 54.7807 60.7962 55.052C61.0899 55.3233 61.4751 55.474 61.875 55.474C62.2749 55.474 62.6601 55.3233 62.9538 55.052C63.2476 54.7807 63.4283 54.4086 63.46 54.01V52.18H60.29Z" fill="#3126F5"/>
<path d="M81.49 48.53H77.84V51.71H81.49V48.53Z" fill="#3126F5"/>
<path d="M77.84 52.18V53.77C77.8741 54.2307 78.0812 54.6614 78.4197 54.9758C78.7582 55.2901 79.2031 55.4648 79.665 55.4648C80.1269 55.4648 80.5718 55.2901 80.9103 54.9758C81.2488 54.6614 81.4559 54.2307 81.49 53.77V52.18H77.84Z" fill="#3126F5"/>
<path d="M95.5 48.53H91.85V51.71H95.5V48.53Z" fill="#3126F5"/>
<path d="M95.49 48.06V46.47C95.4913 46.2306 95.4452 45.9934 95.3542 45.7719C95.2632 45.5505 95.1292 45.3494 94.9599 45.1801C94.7906 45.0108 94.5895 44.8768 94.3681 44.7858C94.1466 44.6948 93.9094 44.6487 93.67 44.65V44.65C93.4306 44.6487 93.1934 44.6948 92.972 44.7858C92.7505 44.8768 92.5494 45.0108 92.3801 45.1801C92.2108 45.3494 92.0768 45.5505 91.9858 45.7719C91.8948 45.9934 91.8487 46.2306 91.85 46.47V48.06H95.49Z" fill="#3126F5"/>
<path d="M91.85 52.18V53.77C91.8487 54.0094 91.8948 54.2466 91.9858 54.468C92.0768 54.6895 92.2108 54.8906 92.3801 55.0599C92.5494 55.2292 92.7505 55.3632 92.972 55.4542C93.1934 55.5452 93.4306 55.5913 93.67 55.59C93.9094 55.5913 94.1466 55.5452 94.3681 55.4542C94.5895 55.3632 94.7906 55.2292 94.9599 55.0599C95.1292 54.8906 95.2632 54.6895 95.3542 54.468C95.4452 54.2466 95.4913 54.0094 95.49 53.77V52.18H91.85Z" fill="#3126F5"/>
<path d="M52.45 52.18C52.5181 53.0988 52.9312 53.9578 53.6063 54.5847C54.2815 55.2116 55.1687 55.56 56.09 55.56C57.0113 55.56 57.8985 55.2116 58.5736 54.5847C59.2488 53.9578 59.6618 53.0988 59.73 52.18H52.45Z" fill="#3126F5"/>
<path d="M55.58 48.53H52.41V51.7H55.58V48.53Z" fill="#3126F5"/>
<path d="M59.79 48.53H56.62V51.7H59.79V48.53Z" fill="#3126F5"/>
<path d="M63.46 48.06V46.23C63.4283 45.8314 63.2476 45.4593 62.9538 45.188C62.6601 44.9167 62.2749 44.766 61.875 44.766C61.4751 44.766 61.0899 44.9167 60.7962 45.188C60.5024 45.4593 60.3217 45.8314 60.29 46.23V48.06H63.46Z" fill="#3126F5"/>
<path d="M64.49 48.53H60.29V51.69H67.66C67.6574 50.851 67.3222 50.0473 66.728 49.4549C66.1338 48.8626 65.329 48.53 64.49 48.53V48.53Z" fill="#3126F5"/>
<path d="M24.91 44.65C23.9839 44.6505 23.0926 45.0031 22.4167 45.6363C21.7408 46.2694 21.3309 47.1359 21.27 48.06H28.55C28.4891 47.1359 28.0792 46.2694 27.4033 45.6363C26.7274 45.0031 25.8361 44.6505 24.91 44.65Z" fill="#3126F5"/>
<path d="M28.57 48.53H25.4V51.71H28.57V48.53Z" fill="#3126F5"/>
<path d="M24.37 48.53H21.2V51.71H24.37V48.53Z" fill="#3126F5"/>
<path d="M24.83 55.59C25.7561 55.5895 26.6474 55.2369 27.3233 54.6037C27.9992 53.9705 28.4091 53.1041 28.47 52.18H21.2C21.2585 53.1032 21.6662 53.9696 22.3405 54.603C23.0148 55.2364 23.9049 55.5893 24.83 55.59Z" fill="#3126F5"/>
<path d="M14.75 43.71C17.28 42.28 19.58 41.8 20.51 42.71C21.44 43.62 20.95 45.94 19.51 48.47C19.5606 48.6542 19.6006 48.8412 19.63 49.03C21.97 45.69 22.89 42.7 21.69 41.5C20.49 40.3 17.51 41.23 14.17 43.57C14.3659 43.6052 14.5596 43.6519 14.75 43.71V43.71Z" fill="#3126F5"/>
<path d="M11.47 56.53C8.98 57.91 6.73 58.35 5.81 57.43C4.89 56.51 5.33 54.26 6.71 51.77C6.65944 51.579 6.61938 51.3854 6.59 51.19C4.24 54.53 3.32 57.52 4.52 58.72C5.72 59.92 8.71 58.99 12.05 56.65C11.8546 56.6206 11.661 56.5806 11.47 56.53V56.53Z" fill="#3126F5"/>
</g>
<defs>
<clipPath id="clip0">
<rect width="91.5" height="18.24" fill="white" transform="translate(4 41)"/>
</clipPath>
</defs>
</svg>
