<svg width="100" height="100" viewBox="0 0 100 100" fill="none" xmlns="http://www.w3.org/2000/svg">
<rect width="100" height="100" fill="white"/>
<g clip-path="url(#clip0)">
<path d="M88.34 73.12H17.67C16.9956 73.12 16.3293 72.9723 15.7181 72.6873C15.1068 72.4023 14.5654 71.987 14.1317 71.4705C13.6981 70.9539 13.3828 70.3487 13.2081 69.6973C13.0333 69.046 13.0032 68.3642 13.12 67.7L15.26 55.87H80.33L88.34 73.12Z" fill="#3126F5"/>
<path d="M85.34 70.53H85.18C84.7969 70.5015 84.4286 70.3704 84.1136 70.1504C83.7986 69.9305 83.5487 69.6298 83.39 69.28L78.87 59.28C78.8276 59.1888 78.808 59.0886 78.8129 58.9881C78.8179 58.8876 78.8472 58.7898 78.8984 58.7031C78.9496 58.6165 79.0211 58.5437 79.1068 58.4908C79.1924 58.438 79.2896 58.4068 79.39 58.4H79.77L79.66 58.23H75.2L75.3 58.4L76.3 58.48C76.4121 58.4887 76.5197 58.5278 76.6113 58.593C76.7029 58.6581 76.775 58.747 76.82 58.85L79.2 64.13H74.25L72.08 59.32C72.0376 59.2288 72.018 59.1286 72.0229 59.0281C72.0279 58.9276 72.0572 58.8298 72.1084 58.7431C72.1596 58.6565 72.2311 58.5837 72.3167 58.5308C72.4024 58.478 72.4996 58.4468 72.6 58.44H72.98L72.87 58.27H59.14L59.68 59.55C58.6087 58.7152 57.2881 58.2644 55.93 58.27H46.33L46.44 58.44L47.44 58.52C47.5512 58.5317 47.6574 58.572 47.7485 58.6368C47.8396 58.7016 47.9125 58.7888 47.96 58.89L51.5 66.74C51.0836 66.1037 50.5365 65.5632 49.8951 65.1546C49.2537 64.746 48.5327 64.4785 47.78 64.37C49.24 63.98 49.57 62.67 48.64 61.13C48.178 60.3987 47.5668 59.7731 46.8466 59.2941C46.1263 58.815 45.3131 58.4934 44.46 58.35C44.1297 58.2938 43.795 58.267 43.46 58.27H32.73V58.44L33.49 58.5C33.5757 58.5073 33.6591 58.532 33.7349 58.5727C33.8107 58.6134 33.8773 58.6692 33.9307 58.7367C33.9841 58.8042 34.0232 58.8818 34.0454 58.965C34.0676 59.0481 34.0726 59.1349 34.06 59.22L32.6 68.52L28.28 58.27H23.28L21.71 67.15C21.6962 67.5065 21.6108 67.8567 21.4588 68.1795C21.3069 68.5024 21.0916 68.7914 20.8257 69.0293C20.5598 69.2672 20.2487 69.4492 19.911 69.5644C19.5733 69.6796 19.2159 69.7258 18.86 69.7C17.07 69.7 16.2 68.57 16.59 66.36L18.01 58.27H16.36L14.95 66.36C14.43 69.36 15.78 71.12 18.7 71.12C19.2692 71.1664 19.842 71.0994 20.3852 70.923C20.9284 70.7466 21.4312 70.4643 21.8646 70.0923C22.2979 69.7203 22.6532 69.2661 22.9099 68.7559C23.1666 68.2457 23.3196 67.6897 23.36 67.12L24.9 58.42H25.52C25.6063 58.4258 25.6904 58.4496 25.767 58.4899C25.8435 58.5301 25.9108 58.586 25.9645 58.6538C26.0181 58.7216 26.057 58.7999 26.0787 58.8836C26.1003 58.9673 26.1041 59.0547 26.09 59.14L24.41 69.95C24.3877 70.0883 24.3193 70.215 24.2157 70.3095C24.1122 70.4039 23.9798 70.4605 23.84 70.47L22.96 70.54V70.72H26.15V70.54L25.39 70.48C25.3037 70.4742 25.2196 70.4504 25.143 70.4101C25.0665 70.3699 24.9992 70.314 24.9455 70.2462C24.8919 70.1784 24.853 70.1001 24.8313 70.0164C24.8097 69.9327 24.8058 69.8453 24.82 69.76L26.52 58.85L31.47 70.72H32.67L34.5 59.14C34.5308 58.9447 34.6265 58.7655 34.7717 58.6313C34.9168 58.497 35.1029 58.4156 35.3 58.4H35.62C35.7048 58.4074 35.7872 58.4318 35.8622 58.4719C35.9373 58.512 36.0034 58.5669 36.0567 58.6332C36.1099 58.6996 36.1492 58.776 36.1721 58.858C36.195 58.9399 36.2011 59.0256 36.19 59.11L34.52 69.95C34.4977 70.091 34.4281 70.2202 34.3227 70.3165C34.2174 70.4128 34.0824 70.4704 33.94 70.48L33.04 70.55V70.73H37.67V70.55H36.98C36.8943 70.5427 36.8109 70.518 36.7351 70.4773C36.6593 70.4366 36.5927 70.3808 36.5393 70.3133C36.4859 70.2458 36.4468 70.1681 36.4246 70.085C36.4024 70.0019 36.3974 69.9151 36.41 69.83L37.99 58.95C38.0135 58.8113 38.0821 58.6842 38.1852 58.5884C38.2882 58.4926 38.4199 58.4334 38.56 58.42L39.39 58.35V58.28L44.67 70.71H49.06C52.06 70.71 52.65 69.52 51.86 67.44L52.86 69.61C52.9 69.7014 52.9177 69.8011 52.9117 69.9007C52.9057 70.0004 52.876 70.0971 52.8252 70.1831C52.7745 70.269 52.704 70.3417 52.6196 70.395C52.5352 70.4484 52.4394 70.4809 52.34 70.49H51.89L52 70.67H60.91L60.8 70.49L59.57 70.41C59.4571 70.3999 59.3487 70.3605 59.2558 70.2955C59.1628 70.2306 59.0884 70.1425 59.04 70.04L56.58 64.57H58.09L64.37 70.67H67.45L67.33 70.47L66.33 70.41C66.1962 70.3888 66.0713 70.3298 65.97 70.24L61.51 66C60.9509 65.4628 60.2616 65.0803 59.51 64.89L58.18 64.55L59.09 64.24C60.76 63.77 62.02 62.69 60.82 60.68C60.549 60.2407 60.2117 59.846 59.82 59.51H63.67L68.41 70.67H70.05L65.35 59.55H69.35L68.84 58.36L69.57 58.41C69.6821 58.4187 69.7897 58.4578 69.8813 58.523C69.9729 58.5881 70.045 58.677 70.09 58.78L74.98 69.61C75.0224 69.7012 75.042 69.8014 75.0371 69.9019C75.0321 70.0024 75.0028 70.1002 74.9516 70.1868C74.9004 70.2735 74.8289 70.3463 74.7433 70.3992C74.6576 70.452 74.5604 70.4832 74.46 70.49H74.01L74.12 70.67H78.67L78.56 70.49H78.4C78.0169 70.4615 77.6486 70.3304 77.3336 70.1104C77.0186 69.8905 76.7687 69.5898 76.61 69.24L74.37 64.29H79.37L81.76 69.58C81.8024 69.6712 81.822 69.7714 81.8171 69.8719C81.8121 69.9724 81.7828 70.0702 81.7316 70.1568C81.6804 70.2435 81.6089 70.3163 81.5233 70.3692C81.4376 70.422 81.3404 70.4532 81.24 70.46H80.79L80.9 70.64H85.49L85.34 70.53ZM41.58 59.53H43.93C44.579 59.5236 45.2179 59.6908 45.7805 60.0143C46.3432 60.3378 46.8091 60.8059 47.13 61.37C47.97 62.77 47.49 63.66 45.69 63.66H43.33L41.58 59.53ZM48.4 69.38H45.76L43.89 64.95H46.67C47.3316 64.9857 47.9735 65.1877 48.5363 65.5373C49.0991 65.8869 49.5647 66.3728 49.89 66.95C50.8 68.46 50.47 69.35 48.4 69.35V69.38ZM57 69.65C57.04 69.7414 57.0577 69.8411 57.0517 69.9407C57.0457 70.0404 57.016 70.1372 56.9652 70.2231C56.9145 70.309 56.844 70.3817 56.7596 70.435C56.6752 70.4884 56.5794 70.5209 56.48 70.53H56.26H55.9C55.6424 70.5082 55.3952 70.4179 55.1842 70.2684C54.9733 70.1189 54.8061 69.9158 54.7 69.68L50.01 59.25C49.9676 59.1588 49.948 59.0586 49.9529 58.9581C49.9579 58.8576 49.9872 58.7598 50.0384 58.6731C50.0896 58.5865 50.1611 58.5137 50.2467 58.4608C50.3324 58.408 50.4296 58.3768 50.53 58.37H50.76H50.86C51.1999 58.3968 51.5262 58.5151 51.8044 58.7122C52.0825 58.9094 52.3022 59.1782 52.44 59.49L57 69.65ZM58.45 64.28H56.45L53.82 58.44H55.14C55.9312 58.4892 56.6953 58.7474 57.3541 59.1884C58.0129 59.6293 58.5429 60.2372 58.89 60.95C60.03 62.8 59.27 63.68 58.45 64.25V64.28Z" fill="white"/>
<path d="M54.8195 51.5485C62.0169 46.4506 64.3503 37.3747 60.0312 31.2769C55.7122 25.1791 46.3762 24.3686 39.1788 29.4666C31.9813 34.5645 29.648 43.6404 33.967 49.7382C38.2861 55.836 47.622 56.6465 54.8195 51.5485Z" fill="white" stroke="#3126F5" stroke-width="0.23" stroke-miterlimit="10"/>
<path d="M51.82 51.1L48.2 42.21H48.27L53.94 46.77L54 46.71L48.79 41.63C48.79 41.63 48.79 41.54 48.79 41.56L55.86 43.41C55.92 43.41 55.94 43.34 55.86 43.32L48.99 40.81V40.72L52.67 39.95V39.86L49.05 39.94V39.86L57.29 34.6C57.29 34.6 57.29 34.49 57.24 34.52L48.68 39.17C48.68 39.17 48.59 39.17 48.62 39.11L52.62 32.91C52.62 32.86 52.62 32.81 52.55 32.85L47.96 38.66C47.96 38.66 47.87 38.66 47.88 38.66L48.3 35.02C48.3 34.97 48.22 34.95 48.21 35.02L47.13 38.52C47.13 38.52 47.05 38.52 47.04 38.52L44.61 28.95C44.61 28.89 44.52 28.95 44.53 28.95L46.2 38.6H46.12L41.54 32.8C41.54 32.8 41.44 32.8 41.47 32.86L45.47 39.06C45.47 39.06 45.47 39.15 45.47 39.12L38.95 35.68V35.76L45.11 39.76V39.84L35.44 39.07C35.44 39.07 35.38 39.15 35.44 39.16L45.06 40.62V40.71L41.67 42.16C41.61 42.16 41.67 42.26 41.67 42.25L45.21 41.5V41.57L38.21 48.22C38.21 48.22 38.21 48.32 38.27 48.28L45.7 42.16L45.77 42.22L43.16 48.95C43.16 49 43.22 49.04 43.24 48.95L46.54 42.46C46.54 42.46 46.62 42.46 46.63 42.46L46.96 46.03C46.96 46.0433 46.9653 46.056 46.9746 46.0654C46.984 46.0747 46.9967 46.08 47.01 46.08C47.0232 46.08 47.036 46.0747 47.0453 46.0654C47.0547 46.056 47.06 46.0433 47.06 46.03L47.39 42.46H47.48L51.74 51.08C51.77 51.19 51.85 51.15 51.82 51.1Z" fill="#3126F5"/>
<path d="M47 42.37C48.0328 42.37 48.87 41.5328 48.87 40.5C48.87 39.4672 48.0328 38.63 47 38.63C45.9672 38.63 45.13 39.4672 45.13 40.5C45.13 41.5328 45.9672 42.37 47 42.37Z" fill="#3126F5"/>
</g>
<defs>
<clipPath id="clip0">
<rect width="75.34" height="47.11" fill="white" transform="translate(13 26)"/>
</clipPath>
</defs>
</svg>
